<svg width="50" height="50" fill="none" xmlns="http://www.w3.org/2000/svg"><circle cx="25" cy="25" r="24.5" stroke="#fff"/><path d="M23 10.22l.682-.678a1.872 1.872 0 012.636 0M38 21.148l-3.182-3.16m-21.09 1.4L12 21.149m4.227 1.04l-1.41-6.864c-.181-.813.365-1.58 1.137-1.762l13.91-2.89c.817-.18 1.59.362 1.773 1.129l2.182 10.342" stroke="#fff" stroke-linecap="round" stroke-linejoin="round"/><path d="M18.682 24.175l-1.818-8.76 12.909-2.665 2.273 10.838M20 17.628l7.818-1.626m-7.272 4.244l7.818-1.626m-7.274 4.244l7.818-1.625m.546 2.62l-1.682.362" stroke="#fff" stroke-linecap="round" stroke-linejoin="round"/><path d="M29.272 28.239L38 21.149v13.998c0 .497-.227.993-.546 1.31a1.938 1.938 0 01-1.318.541H13.864c-.5 0-1-.225-1.318-.542a1.8 1.8 0 01-.546-1.31V21.149l8.682 7.046" stroke="#fff" stroke-linecap="round" stroke-linejoin="round"/><path d="M37.454 36.457a1.938 1.938 0 01-1.318.543H13.864c-.5 0-1-.226-1.318-.543l11.136-11.063a1.872 1.872 0 012.636 0l11.136 11.063z" stroke="#fff" stroke-linecap="round" stroke-linejoin="round"/></svg>