<svg width="18" height="22" fill="none" xmlns="http://www.w3.org/2000/svg"><path d="M14.422 17.851a.498.498 0 01-.494.506h-2.69a.498.498 0 01-.494-.506c0-.283.221-.506.493-.506h2.691c.272 0 .494.223.494.506zm-7.438-.233l.121-.131-.987-1.012.987-1.012c.192-.192.192-.496 0-.709a.511.511 0 00-.332-.141.466.466 0 00-.363.141l-.988 1.012-.998-1.012a.508.508 0 00-.685 0 .511.511 0 000 .719l.988 1.012-.988 1.012a.507.507 0 00-.141.354c0 .283.222.506.494.506.13 0 .262-.05.353-.152l.987-1.012.988 1.012a.524.524 0 00.705 0 .525.525 0 00.142-.354.507.507 0 00-.142-.354l-.12.121h-.02zm-.221-7.124h-.847v-.87a.498.498 0 10-.998 0v.87h-.846a.498.498 0 00-.494.506c0 .283.222.506.494.506h.846v.87a.5.5 0 10.998 0v-.87h.847A.498.498 0 007.256 11a.498.498 0 00-.493-.506zm7.155 0h-2.69a.498.498 0 00-.495.506c0 .283.222.506.494.506h2.691a.498.498 0 00.494-.506.498.498 0 00-.494-.506zM18 2.328v17.345C18 20.957 16.972 22 15.712 22H2.288C1.028 22 0 20.958 0 19.672V2.328C0 1.042 1.028 0 2.288 0h13.424C16.972 0 18 1.042 18 2.328zm-2.288-1.316H2.288a1.3 1.3 0 00-1.29 1.316v17.345a1.3 1.3 0 001.29 1.315h13.424a1.3 1.3 0 001.29-1.316V2.328a1.3 1.3 0 00-1.29-1.316zm-.403 3.147v1.822c0 .779-.625 1.416-1.39 1.416H4.071c-.766 0-1.391-.637-1.391-1.416V4.159c0-.779.625-1.417 1.39-1.417h9.847c.766 0 1.391.638 1.391 1.417zm-1.39-.415H4.071a.407.407 0 00-.403.415v1.822c0 .222.18.415.403.415h9.846a.407.407 0 00.403-.415V4.159a.414.414 0 00-.403-.415zm0 10.859h-2.692a.498.498 0 00-.494.506c0 .283.222.505.494.505h2.691a.498.498 0 00.494-.505.498.498 0 00-.494-.506z" fill="#fff"/></svg>