<svg width="32" height="35" viewBox="0 0 32 35" fill="none" xmlns="http://www.w3.org/2000/svg">
<path d="M13.6919 2.43842L14.4794 1.6393C15.3194 0.7869 16.6825 0.7869 17.5206 1.6393M31 15.3176L27.3287 11.5922M2.99313 13.2437L1 15.3176M5.87688 16.543L4.25125 8.45278C4.04125 7.49574 4.67125 6.59006 5.56187 6.37696L21.6119 2.97117C22.555 2.75807 23.4475 3.39737 23.6575 4.30114L26.1756 16.4897" stroke="white" stroke-linecap="round" stroke-linejoin="round"/>
<path d="M8.71019 18.8852L6.61206 8.55934L21.5071 5.41992L24.1302 18.1926M10.2308 11.1679L19.2514 9.25191M10.8608 14.254L19.8814 12.3381M11.4889 17.3402L20.5096 15.4242M21.1396 18.5122L19.1989 18.9384" stroke="white" stroke-linecap="round" stroke-linejoin="round"/>
<path d="M20.9294 23.6742L31 15.3176V31.8157C31 32.4018 30.7375 32.9859 30.37 33.3588C30.0025 33.7317 29.4269 33.9981 28.8494 33.9981H3.15063C2.57313 33.9981 1.9975 33.7317 1.63 33.3588C1.21 32.9326 1 32.4018 1 31.8157V15.3176L11.0181 23.6209" stroke="white" stroke-linecap="round" stroke-linejoin="round"/>
<path d="M30.3701 33.3607C30.0026 33.7336 29.427 34 28.8495 34H3.15075C2.57325 34 1.99763 33.7336 1.63013 33.3607L14.4795 20.3217C15.3195 19.4693 16.6826 19.4693 17.5208 20.3217L30.3701 33.3607Z" stroke="white" stroke-linecap="round" stroke-linejoin="round"/>
</svg>
