<svg width="28" height="34" fill="none" xmlns="http://www.w3.org/2000/svg"><path d="M21.74 4.25H6.17c-1.06 0-1.92.86-1.92 1.92V9c0 1.06.86 1.92 1.92 1.92h15.57c1.06 0 1.92-.86 1.92-1.92V6.17c0-1.06-.86-1.92-1.92-1.92zM22.65 9c0 .5-.41.91-.91.91H6.17c-.5 0-.91-.41-.91-.91V6.17c0-.5.41-.91.91-.91h15.57c.5 0 .91.41.91.91V9zM10.77 27.04c.1.1.15.22.15.36 0 .14-.05.26-.15.36-.19.19-.53.19-.72 0L8.29 26l-1.76 1.76c-.09.09-.22.15-.36.15a.508.508 0 01-.36-.87l1.76-1.76-1.76-1.76c-.19-.2-.19-.52.01-.72.1-.1.23-.14.35-.14.12 0 .25.05.35.14l1.76 1.76 1.76-1.76c.1-.09.2-.15.36-.14.14 0 .26.06.36.15.19.2.19.51 0 .7L9 25.27l1.76 1.76.01.01zm11.48.36c0 .28-.23.51-.51.51h-4.25c-.28 0-.51-.23-.51-.51s.23-.51.51-.51h4.25c.28 0 .51.23.51.51zM10.92 16.78c0 .28-.23.51-.51.51H8.79v1.62c0 .28-.23.51-.51.51s-.51-.23-.51-.51v-1.62H6.15c-.28 0-.51-.23-.51-.51s.23-.51.51-.51h1.62v-1.62c0-.28.23-.51.51-.51s.51.23.51.51v1.62h1.62c.28 0 .51.23.51.51zM24.57 0H3.34C1.5 0 0 1.5 0 3.34v26.89c0 1.84 1.5 3.34 3.34 3.34h21.23c1.84 0 3.34-1.5 3.34-3.34V3.34c0-1.84-1.5-3.34-3.34-3.34zm2.32 30.23c0 1.28-1.04 2.32-2.32 2.32H3.34c-1.28 0-2.32-1.04-2.32-2.32V3.34c0-1.28 1.04-2.32 2.32-2.32h21.23c1.28 0 2.32 1.04 2.32 2.32v26.89zm-4.64-13.45c0 .28-.23.51-.51.51h-4.25c-.28 0-.51-.23-.51-.51s.23-.51.51-.51h4.25c.28 0 .51.23.51.51zm0 6.37c0 .28-.23.51-.51.51h-4.25c-.28 0-.51-.23-.51-.51s.23-.51.51-.51h4.25c.28 0 .51.23.51.51z" fill="#003A94"/></svg>