<svg width="32" height="35" fill="none" xmlns="http://www.w3.org/2000/svg"><path d="M13.692 2.438l.787-.799a2.128 2.128 0 013.042 0M31 15.318l-3.671-3.726M2.993 13.244L1 15.318m4.877 1.225L4.25 8.453c-.21-.957.42-1.863 1.31-2.076l16.05-3.406c.944-.213 1.837.426 2.046 1.33l2.519 12.189" stroke="#fff" stroke-linecap="round" stroke-linejoin="round"/><path d="M8.71 18.885L6.612 8.56l14.895-3.14 2.623 12.774m-13.9-7.025l9.021-1.916m-8.39 5.002l9.02-1.916M11.49 17.34l9.02-1.916m.63 3.088l-1.94.426" stroke="#fff" stroke-linecap="round" stroke-linejoin="round"/><path d="M20.93 23.674L31 15.318v16.498c0 .586-.262 1.17-.63 1.543a2.21 2.21 0 01-1.52.64H3.15a2.212 2.212 0 01-1.52-.64A2.145 2.145 0 011 31.816V15.318l10.018 8.303" stroke="#fff" stroke-linecap="round" stroke-linejoin="round"/><path d="M30.37 33.36c-.367.374-.943.64-1.52.64H3.15a2.212 2.212 0 01-1.52-.64l12.85-13.038a2.128 2.128 0 013.04 0L30.37 33.36z" stroke="#fff" stroke-linecap="round" stroke-linejoin="round"/></svg>