<svg width="50" height="50" fill="none" xmlns="http://www.w3.org/2000/svg"><circle cx="25" cy="25" r="24.5" stroke="#fff"/><path d="M36 30.471v3.312a2.202 2.202 0 01-.717 1.636 2.213 2.213 0 01-1.695.572 21.919 21.919 0 01-9.546-3.39 21.548 21.548 0 01-6.637-6.623 21.819 21.819 0 01-3.396-9.571 2.203 2.203 0 011.31-2.219c.28-.123.584-.188.891-.188h3.319a2.215 2.215 0 012.211 1.9c.14 1.06.4 2.1.774 3.102a2.204 2.204 0 01-.498 2.33l-1.404 1.401a17.68 17.68 0 006.637 6.624l1.404-1.402a2.213 2.213 0 012.334-.497c1.004.374 2.047.633 3.109.773a2.213 2.213 0 011.902 2.241z" stroke="#fff" stroke-linecap="round" stroke-linejoin="round"/></svg>