<svg width="50" height="50" fill="none" xmlns="http://www.w3.org/2000/svg"><circle cx="25" cy="25" r="24.5" stroke="#fff"/><path d="M31.694 13.798H18.306c-.912 0-1.651.769-1.651 1.716v2.529c0 .947.74 1.716 1.65 1.716h13.39c.91 0 1.65-.769 1.65-1.716v-2.53c0-.946-.74-1.715-1.65-1.715zm.783 4.245c0 .447-.353.813-.783.813H18.306c-.43 0-.783-.366-.783-.813v-2.53c0-.446.353-.812.783-.812h13.388c.43 0 .783.366.783.813v2.529zM22.26 34.164a.45.45 0 01.13.322.44.44 0 01-.748.322l-1.514-1.573-1.514 1.573a.434.434 0 01-.31.134.45.45 0 01-.438-.456c0-.116.043-.232.13-.322l1.512-1.572-1.513-1.573a.475.475 0 01.009-.644.413.413 0 01.3-.125c.104 0 .216.045.302.125l1.513 1.573 1.514-1.573c.085-.08.171-.134.309-.125a.45.45 0 01.31.134.46.46 0 010 .626l-1.514 1.573 1.514 1.573.008.008zm9.872.322a.45.45 0 01-.439.456H28.04a.45.45 0 01-.439-.456.45.45 0 01.439-.456h3.654a.45.45 0 01.439.456zm-9.743-9.49a.45.45 0 01-.438.455h-1.393V26.9a.45.45 0 01-.439.456.45.45 0 01-.439-.456v-1.448h-1.393a.45.45 0 01-.438-.456.45.45 0 01.438-.455h1.393v-1.448a.45.45 0 01.439-.456.45.45 0 01.439.456v1.448h1.393a.45.45 0 01.438.456zM34.128 10H15.872C14.29 10 13 11.34 13 12.985v24.03C13 38.66 14.29 40 15.872 40h18.256C35.71 40 37 38.66 37 37.015v-24.03C37 11.34 35.71 10 34.128 10zm1.995 27.015c0 1.144-.894 2.074-1.995 2.074H15.872c-1.1 0-1.995-.93-1.995-2.074v-24.03c0-1.144.894-2.073 1.995-2.073h18.256c1.1 0 1.995.929 1.995 2.073v24.03zm-3.99-12.02a.45.45 0 01-.439.456H28.04a.45.45 0 01-.439-.456.45.45 0 01.439-.455h3.654a.45.45 0 01.439.456zm0 5.693a.45.45 0 01-.439.456H28.04a.45.45 0 01-.439-.456.45.45 0 01.439-.456h3.654a.45.45 0 01.439.456z" fill="#fff"/></svg>